<?xml version="1.0" encoding="utf-8"?>
<svg viewBox="1.34 -4.203 725.41 47" width="725.41" height="47" xmlns="http://www.w3.org/2000/svg">
  <path d="M 343.615 37.129 C 343.615 38.409 344.665 39.449 345.935 39.449 C 347.215 39.449 348.255 38.409 348.255 37.129 L 348.255 2.789 L 360.035 2.789 C 361.195 2.789 362.175 1.869 362.175 0.709 C 362.175 -0.451 361.195 -1.441 360.035 -1.441 L 331.845 -1.441 C 330.685 -1.441 329.695 -0.451 329.695 0.709 C 329.695 1.869 330.685 2.789 331.845 2.789 L 343.615 2.789 L 343.615 37.129 ZM 372.726 39.159 L 398.246 39.159 C 399.406 39.159 400.336 38.229 400.336 37.069 C 400.336 35.909 399.406 34.979 398.246 34.979 L 375.046 34.979 L 375.046 20.769 L 395.346 20.769 C 396.506 20.769 397.436 19.849 397.436 18.689 C 397.436 17.579 396.506 16.599 395.346 16.599 L 375.046 16.599 L 375.046 2.739 L 397.956 2.739 C 399.116 2.739 400.046 1.809 400.046 0.649 C 400.046 -0.511 399.116 -1.441 397.956 -1.441 L 372.726 -1.441 C 371.516 -1.441 370.466 -0.401 370.466 0.879 L 370.466 36.839 C 370.466 38.119 371.516 39.159 372.726 39.159 ZM 427.883 39.859 C 434.553 39.859 438.963 37.539 442.963 33.879 C 443.373 33.529 443.723 32.949 443.723 32.259 C 443.723 31.099 442.673 30.049 441.513 30.049 C 440.933 30.049 440.413 30.339 440.063 30.689 C 436.583 33.879 433.043 35.619 428.003 35.619 C 419.073 35.619 412.283 28.259 412.283 18.859 L 412.283 18.739 C 412.283 9.409 419.013 2.099 428.003 2.099 C 432.993 2.099 436.523 3.949 439.663 6.739 C 440.003 6.969 440.533 7.259 441.163 7.259 C 442.383 7.259 443.483 6.219 443.483 4.999 C 443.483 4.189 443.023 3.549 442.563 3.139 C 438.793 0.009 434.613 -2.141 428.063 -2.141 C 416.113 -2.141 407.523 7.379 407.523 18.859 L 407.523 18.979 C 407.523 30.629 416.173 39.859 427.883 39.859 ZM 452.123 37.129 C 452.123 38.409 453.173 39.449 454.383 39.449 C 455.663 39.449 456.703 38.409 456.703 37.129 L 456.703 20.889 L 480.143 20.889 L 480.143 37.129 C 480.143 38.409 481.183 39.449 482.463 39.449 C 483.673 39.449 484.723 38.409 484.723 37.129 L 484.723 0.589 C 484.723 -0.691 483.673 -1.731 482.463 -1.731 C 481.183 -1.731 480.143 -0.691 480.143 0.589 L 480.143 16.599 L 456.703 16.599 L 456.703 0.589 C 456.703 -0.691 455.663 -1.731 454.383 -1.731 C 453.173 -1.731 452.123 -0.691 452.123 0.589 L 452.123 37.129 ZM 510.12 39.739 C 518.18 39.739 523.98 35.219 523.98 28.259 L 523.98 28.139 C 523.98 21.929 519.81 18.629 510.76 16.659 C 501.83 14.739 499.74 12.599 499.74 8.769 L 499.74 8.649 C 499.74 4.999 503.1 2.099 508.38 2.099 C 512.15 2.099 515.46 3.139 518.88 5.639 C 519.29 5.929 519.69 6.039 520.21 6.039 C 521.43 6.039 522.42 5.059 522.42 3.839 C 522.42 2.969 521.9 2.329 521.43 1.979 C 517.72 -0.691 513.83 -2.021 508.5 -2.021 C 500.78 -2.021 495.16 2.679 495.16 9.059 L 495.16 9.169 C 495.16 15.839 499.45 18.859 508.79 20.889 C 517.31 22.689 519.34 24.829 519.34 28.599 L 519.34 28.719 C 519.34 32.719 515.75 35.619 510.3 35.619 C 505.13 35.619 501.31 34.059 497.48 30.809 C 497.19 30.519 496.67 30.289 496.09 30.289 C 494.87 30.289 493.88 31.269 493.88 32.549 C 493.88 33.299 494.23 33.939 494.75 34.289 C 499.28 37.879 504.21 39.739 510.12 39.739 ZM 549.557 39.799 C 559.707 39.799 566.497 33.649 566.497 21.819 L 566.497 0.589 C 566.497 -0.691 565.447 -1.731 564.237 -1.731 C 562.957 -1.731 561.917 -0.691 561.917 0.589 L 561.917 22.169 C 561.917 31.039 557.157 35.559 549.677 35.559 C 541.957 35.559 537.267 30.629 537.267 21.879 L 537.267 0.589 C 537.267 -0.691 536.217 -1.731 534.947 -1.731 C 533.727 -1.731 532.677 -0.691 532.677 0.589 L 532.677 22.169 C 532.677 33.649 539.527 39.799 549.557 39.799 ZM 577.335 37.189 C 577.335 38.459 578.325 39.449 579.545 39.449 C 580.815 39.449 581.805 38.459 581.805 37.189 L 581.805 6.909 L 594.735 25.939 C 595.255 26.689 595.895 27.099 596.705 27.099 C 597.525 27.099 598.105 26.689 598.625 25.939 L 611.615 6.849 L 611.615 37.129 C 611.615 38.349 612.655 39.449 613.935 39.449 C 615.155 39.449 616.195 38.409 616.195 37.129 L 616.195 0.649 C 616.195 -0.571 615.155 -1.611 613.935 -1.611 L 613.415 -1.611 C 612.485 -1.611 611.735 -1.151 611.265 -0.401 L 596.765 21.409 L 582.265 -0.401 C 581.805 -1.091 581.105 -1.611 580.125 -1.611 L 579.595 -1.611 C 578.385 -1.611 577.335 -0.571 577.335 0.649 L 577.335 37.189 ZM 627.675 37.189 C 627.675 38.459 628.665 39.449 629.885 39.449 C 631.155 39.449 632.145 38.459 632.145 37.189 L 632.145 6.909 L 645.075 25.939 C 645.595 26.689 646.235 27.099 647.045 27.099 C 647.865 27.099 648.445 26.689 648.965 25.939 L 661.955 6.849 L 661.955 37.129 C 661.955 38.349 662.995 39.449 664.275 39.449 C 665.495 39.449 666.535 38.409 666.535 37.129 L 666.535 0.649 C 666.535 -0.571 665.495 -1.611 664.275 -1.611 L 663.755 -1.611 C 662.825 -1.611 662.075 -1.151 661.605 -0.401 L 647.105 21.409 L 632.605 -0.401 C 632.145 -1.091 631.445 -1.611 630.465 -1.611 L 629.935 -1.611 C 628.725 -1.611 627.675 -0.571 627.675 0.649 L 627.675 37.189 ZM 678.425 37.129 C 678.425 38.409 679.465 39.449 680.685 39.449 C 681.965 39.449 683.005 38.409 683.005 37.129 L 683.005 0.589 C 683.005 -0.691 681.965 -1.731 680.685 -1.731 C 679.465 -1.731 678.425 -0.691 678.425 0.589 L 678.425 37.129 ZM 705.622 37.129 C 705.622 38.409 706.672 39.449 707.942 39.449 C 709.222 39.449 710.262 38.409 710.262 37.129 L 710.262 2.789 L 722.042 2.789 C 723.202 2.789 724.182 1.869 724.182 0.709 C 724.182 -0.451 723.202 -1.441 722.042 -1.441 L 693.852 -1.441 C 692.692 -1.441 691.702 -0.451 691.702 0.709 C 691.702 1.869 692.692 2.789 693.852 2.789 L 705.622 2.789 L 705.622 37.129 Z" transform="matrix(1, 0, 0, 1, 0, 0)" style="fill: rgb(255, 255, 255); white-space: pre;"/>
  <g transform="matrix(0.47827401757240295, 0, 0, -0.47827401757240295, 2.34040904045105, 39.16543197631836)" id="g10">
    <g transform="scale(0.1)" id="g12">
      <path id="path14" style="fill-opacity: 1; fill-rule: nonzero; stroke: none; fill: rgb(255, 255, 255);" d="m 5398.83,847.848 h -174.94 c -10.64,0 -19.27,-8.606 -19.27,-19.243 V 25.3594 c 0,-10.6094 8.63,-19.26565 19.27,-19.26565 h 174.94 c 10.63,0 19.3,8.65625 19.3,19.26565 V 828.605 c 0,10.637 -8.67,19.243 -19.3,19.243"/>
      <path id="path20" style="fill-opacity: 1; fill-rule: nonzero; stroke: none; fill: rgb(255, 255, 255);" d="m 2051.63,847.813 h -148.7 c -17.91,0 -32.44,-14.524 -32.44,-32.442 0,0 0,-511.516 0,-545.824 0,-57.582 -80.35,-76.07 -178.92,-76.07 -96.82,0 -110.52,0 -110.52,0 0,0 -13.71,0 -110.52,0 -98.58,0 -178.93,18.488 -178.93,76.07 0,34.308 0,545.824 0,545.824 0,17.918 -14.52,32.442 -32.44,32.442 h -148.69 c -17.92,0 -32.44,-14.524 -32.44,-32.442 0,0 0.06,-462.035 0.06,-558.43 0,-96.39 41.94,-157.2926 121.76,-205.1597 79.81,-47.86724 265.78,-45.70317 320.93,-45.70317 55.14,0 60.27,0 60.27,0 0,0 5.12,0 60.27,0 55.14,0 241.11,-2.16407 320.92,45.70317 79.82,47.8671 121.76,108.7697 121.76,205.1597 0,96.395 0.07,558.43 0.07,558.43 0,17.918 -14.53,32.442 -32.44,32.442"/>
      <path id="path22" style="fill-opacity: 1; fill-rule: nonzero; stroke: none; fill: rgb(255, 255, 255);" d="m 6414.76,842.16 c 3.54,3.488 8.43,5.653 13.79,5.653 h 243.75 c 10.88,0 19.69,-8.829 19.69,-19.704 0,-6.386 -3.05,-12.062 -7.76,-15.656 L 6326.41,500.945 c -3.56,-3.558 -8.48,-5.757 -13.91,-5.757 -5.79,0 -10.98,2.484 -14.58,6.441 l -121.88,106.086 c -3.17,3.496 -5.1,8.137 -5.1,13.226 0,6.051 2.71,11.461 7.02,15.086 l 236.8,206.133"/>
      <path id="path24" style="fill-opacity: 1; fill-rule: nonzero; stroke: none; fill: rgb(255, 255, 255);" d="m 6414.76,11.7539 c 3.54,-3.49609 8.43,-5.66015 13.79,-5.66015 h 243.75 c 10.88,0 19.69,8.82815 19.69,19.70315 0,6.3867 -3.05,12.0625 -7.76,15.664 L 6326.41,352.969 c -3.56,3.551 -8.48,5.75 -13.91,5.75 -5.79,0 -10.98,-2.492 -14.58,-6.442 L 6176.04,246.191 c -3.17,-3.496 -5.1,-8.136 -5.1,-13.226 0,-6.059 2.71,-11.461 7.02,-15.098 l 236.8,-206.1131"/>
      <path id="path26" style="fill-opacity: 1; fill-rule: nonzero; stroke: none; fill: rgb(175, 209, 53);" d="m 5764.09,11.2695 c -3.5,-3.20309 -8.17,-5.17575 -13.3,-5.17575 h -244.06 c -10.87,0 -19.68,8.82815 -19.68,19.70315 0,5.4336 2.2,10.3476 5.76,13.8984 l 427.68,372.2027 c 4.29,3.61 7.01,9.02 7.01,15.071 0,5.722 -2.44,10.855 -6.32,14.449 l -427.16,371.676 c -4.27,3.601 -6.97,8.984 -6.97,15.015 0,10.875 8.81,19.704 19.68,19.704 h 244.06 c 5.15,0 9.84,-1.973 13.34,-5.204 l 460.42,-400.777 c 4.17,-3.602 6.8,-8.914 6.8,-14.863 0,-5.961 -2.64,-11.313 -6.83,-14.93 L 5764.09,11.2695"/>
      <path id="path28" style="fill-opacity: 1; fill-rule: nonzero; stroke: none; fill: rgb(255, 255, 255);" d="m 2721.24,640.762 c 0,10.875 8.81,19.668 19.68,19.668 h 302.74 c 17.92,0 32.45,14.523 32.45,32.441 v 122.5 c 0,17.918 -14.53,32.442 -32.45,32.442 h -858.35 c -17.92,0 -32.45,-14.524 -32.45,-32.442 v -122.5 c 0,-17.918 14.53,-32.441 32.45,-32.441 h 302.74 c 10.87,0 19.68,-8.793 19.68,-19.668 V 38.5352 c 0,-17.9336 14.53,-32.44145 32.45,-32.44145 h 148.13 c 17.92,0 32.44,14.50785 32.44,32.44145 l 0.49,602.2268"/>
      <path id="path30" style="fill-opacity: 1; fill-rule: nonzero; stroke: none; fill: rgb(255, 255, 255);" d="m 772.375,325.531 c 2.676,-2.215 5.871,-4.035 9.637,-4.035 7.511,0 13.613,6.078 13.613,13.59 V 815.43 c 0,17.918 14.527,32.445 32.441,32.445 h 148.625 c 17.918,0 32.439,-14.527 32.439,-32.445 0,0 0,-624.774 0,-695.821 C 1009.13,48.5938 981.406,17.5703 954.266,5.66016 927.117,-6.25 844.781,-1.57422 795.625,41.2188 746.469,84.0117 263.148,504.77 263.148,504.77 c 0,0 -28.496,24.937 -30.503,26.511 -2.008,1.578 -4.543,2.52 -7.305,2.52 -6.535,0 -11.832,-5.297 -11.832,-11.832 V 38.5352 c 0,-17.918 -14.528,-32.44145 -32.442,-32.44145 H 32.4414 C 14.5234,6.09375 0,20.6172 0,38.5352 c 0,0 0,624.3008 0,695.3238 0,71.02 27.7266,102.043 54.8711,113.954 27.1445,11.91 109.4809,7.253 158.6369,-35.543 49.156,-42.793 532.476,-463.559 532.476,-463.559 0,0 24.688,-21.762 26.391,-23.18"/>
      <path id="path32" style="fill-opacity: 1; fill-rule: nonzero; stroke: none; fill: rgb(255, 255, 255);" d="m 4898.67,325.531 c 2.68,-2.215 5.87,-4.035 9.64,-4.035 7.52,0 13.61,6.078 13.61,13.59 V 815.43 c 0,17.918 14.53,32.445 32.44,32.445 h 148.62 c 17.92,0 32.45,-14.527 32.45,-32.445 0,0 0,-624.774 0,-695.821 0,-71.0152 -27.72,-102.0387 -54.86,-113.94884 C 5053.42,-6.25 4971.09,-1.57422 4921.92,41.2188 4872.75,84.0117 4389.44,504.77 4389.44,504.77 c 0,0 -28.49,24.937 -30.5,26.511 -2.01,1.578 -4.54,2.52 -7.31,2.52 -6.54,0 -11.84,-5.297 -11.84,-11.832 V 38.5352 c 0,-17.918 -14.5,-32.44145 -32.44,-32.44145 h -148.6 c -17.94,0 -32.45,14.52345 -32.45,32.44145 0,0 0,624.3008 0,695.3238 0,71.02 27.72,102.043 54.86,113.954 27.15,11.91 109.48,7.253 158.63,-35.543 49.17,-42.793 532.48,-463.559 532.48,-463.559 0,0 24.69,-21.762 26.4,-23.18"/>
      <path id="path34" style="fill-opacity: 1; fill-rule: nonzero; stroke: none; fill: rgb(255, 255, 255);" d="m 5204.62,815.371 c 0,17.918 14.53,32.442 32.45,32.442 h 148.62 c 17.92,0 32.44,-14.524 32.44,-32.442 V 38.5352 c 0,-17.918 -14.52,-32.44145 -32.44,-32.44145 h -148.62 c -17.92,0 -32.45,14.52345 -32.45,32.44145 V 815.371"/>
      <path id="path36" style="fill-opacity: 1; fill-rule: nonzero; stroke: none; fill: rgb(255, 255, 255);" d="m 3532.21,411.141 h -217.45 c -6.54,0 -11.84,5.285 -11.84,11.824 0,3.262 1.32,6.211 3.46,8.351 l 106.97,154.493 c 0.59,0.976 1.57,1.597 2.42,2.363 0.65,0.605 1.16,1.363 1.94,1.805 1.43,0.796 3.11,1.136 4.82,1.281 0.34,0.039 0.61,0.246 0.96,0.254 0.34,-0.008 0.61,-0.215 0.95,-0.254 1.71,-0.145 3.39,-0.485 4.82,-1.281 0.78,-0.442 1.29,-1.2 1.95,-1.805 0.84,-0.766 1.82,-1.387 2.41,-2.363 l 106.97,-154.493 c 2.13,-2.14 3.46,-5.089 3.46,-8.351 0,-6.539 -5.29,-11.824 -11.84,-11.824 z M 4052.5,38.4844 3526.74,797.867 l 0.02,0.035 c -22.59,32.805 -60.42,54.309 -103.27,54.309 h -0.01 c -42.85,0 -80.68,-21.504 -103.27,-54.309 l 0.02,-0.035 -525.76,-759.3826 c -2.89,-3.4297 -4.64,-7.8594 -4.64,-12.7071 0,-10.871 8.81,-19.69917 19.68,-19.69917 h 192.25 c 7.32,0 13.68,3.98047 17.08,9.89847 L 3154.9,212.57 c 3.17,6.614 9.93,11.188 17.76,11.188 h 501.65 c 7.84,0 14.59,-4.574 17.76,-11.188 L 3828.12,15.9766 c 3.4,-5.918 9.77,-9.89847 17.09,-9.89847 h 192.25 c 10.87,0 19.68,8.82817 19.68,19.69917 0,4.8477 -1.75,9.2774 -4.64,12.7071"/>
    </g>
  </g>
</svg>